<svg width="31" height="30" viewBox="0 0 31 30" fill="none" xmlns="http://www.w3.org/2000/svg">
<path d="M15 29.8592C6.7932 29.8592 0.140747 23.2067 0.140747 14.9999C0.140747 6.79308 6.7932 0.140625 15 0.140625C23.2068 0.140625 29.8593 6.79308 29.8593 14.9999C29.8593 23.2067 23.2068 29.8592 15 29.8592Z" stroke="#141613" stroke-width="0.4321" stroke-miterlimit="10"/>
<path d="M12.9915 22.9636H16.1962V14.9295H18.435L18.6717 12.243H16.1962C16.1962 12.243 16.1962 11.2387 16.1962 10.7142C16.1962 10.0809 16.3242 9.83144 16.9382 9.83144C17.4308 9.83144 18.6717 9.83144 18.6717 9.83144V7.03613C18.6717 7.03613 16.8423 7.03613 16.4521 7.03613C14.0662 7.03613 12.9915 8.08517 12.9915 10.1001C12.9915 11.8528 12.9915 12.243 12.9915 12.243H11.322V14.9679H12.9915V22.9636Z" fill="#141613"/>
</svg>
