<svg width="31" height="30" viewBox="0 0 31 30" fill="none" xmlns="http://www.w3.org/2000/svg">
<path d="M15.3369 29.8592C7.13011 29.8592 0.477661 23.2067 0.477661 14.9999C0.477661 6.79308 7.13011 0.140625 15.3369 0.140625C23.5438 0.140625 30.1962 6.79308 30.1962 14.9999C30.1962 23.2067 23.5438 29.8592 15.3369 29.8592Z" stroke="#141613" stroke-width="0.4321" stroke-miterlimit="10"/>
<path d="M15.3369 9.07688C17.2687 9.07688 17.4926 9.08327 18.2538 9.12165C18.9574 9.15364 19.3412 9.26877 19.597 9.37112C19.9361 9.49905 20.1727 9.65897 20.4286 9.90843C20.6845 10.1643 20.838 10.401 20.9659 10.74C21.0619 10.9959 21.1834 11.3796 21.2154 12.0833C21.2474 12.8445 21.2602 13.0747 21.2602 15.0001C21.2602 16.9319 21.2538 17.1558 21.2154 17.917C21.1834 18.6206 21.0683 19.0044 20.9659 19.2602C20.838 19.5993 20.6781 19.8359 20.4286 20.0918C20.1727 20.3477 19.9361 20.5012 19.597 20.6291C19.3412 20.7251 18.9574 20.8466 18.2538 20.8786C17.4926 20.9106 17.2623 20.9234 15.3369 20.9234C13.4051 20.9234 13.1813 20.917 12.4201 20.8786C11.7164 20.8466 11.3326 20.7315 11.0768 20.6291C10.7378 20.5012 10.5011 20.3413 10.2452 20.0918C9.98936 19.8359 9.83584 19.5993 9.70791 19.2602C9.61196 19.0044 9.49043 18.6206 9.45845 17.917C9.42646 17.1558 9.41367 16.9255 9.41367 15.0001C9.41367 13.0683 9.42007 12.8445 9.45845 12.0833C9.49043 11.3796 9.60557 10.9959 9.70791 10.74C9.84224 10.401 9.99576 10.1643 10.2452 9.90843C10.5011 9.65257 10.7378 9.49905 11.0768 9.37112C11.3326 9.27517 11.7164 9.15364 12.4201 9.12165C13.1813 9.08327 13.4051 9.07688 15.3369 9.07688ZM15.3369 7.77197C13.3732 7.77197 13.1301 7.77837 12.3561 7.81675C11.5885 7.84873 11.064 7.97666 10.6034 8.14937C10.1301 8.33487 9.7271 8.57794 9.32412 8.98093C8.92113 9.38391 8.67806 9.7869 8.49256 10.2602C8.31346 10.7208 8.19192 11.2453 8.15354 12.0129C8.11516 12.7805 8.10876 13.03 8.10876 14.9937C8.10876 16.9575 8.11516 17.2005 8.15354 17.9745C8.18552 18.7421 8.31346 19.2666 8.49256 19.7272C8.67806 20.2005 8.92113 20.6035 9.32412 21.0065C9.7271 21.4095 10.1301 21.6526 10.6034 21.8381C11.064 22.0172 11.5885 22.1387 12.3561 22.1707C13.1237 22.2027 13.3732 22.2155 15.3369 22.2155C17.3007 22.2155 17.5437 22.2091 18.3177 22.1707C19.0853 22.1387 19.6098 22.0108 20.0704 21.8381C20.5437 21.6526 20.9467 21.4095 21.3497 21.0065C21.7527 20.6035 21.9958 20.2005 22.1813 19.7272C22.3604 19.2666 22.4819 18.7421 22.5203 17.9745C22.5523 17.2069 22.5651 16.9575 22.5651 14.9937C22.5651 13.03 22.5523 12.7933 22.5203 12.0193C22.4883 11.2517 22.3604 10.7272 22.1813 10.2666C21.9958 9.79329 21.7527 9.39031 21.3497 8.98732C20.9467 8.58434 20.5437 8.34127 20.0704 8.15577C19.6098 7.97666 19.0853 7.85513 18.3177 7.82315C17.5437 7.78477 17.3007 7.77197 15.3369 7.77197Z" fill="#141613"/>
<path d="M15.3369 11.29C13.2899 11.29 11.6268 12.9532 11.6268 15.0001C11.6268 17.047 13.2899 18.7101 15.3369 18.7101C17.3838 18.7101 19.0469 17.047 19.0469 15.0001C19.0469 12.9532 17.3838 11.29 15.3369 11.29ZM15.3369 17.4052C14.0064 17.4052 12.9317 16.3242 12.9317 15.0001C12.9317 13.6696 14.0128 12.5949 15.3369 12.5949C16.6673 12.5949 17.742 13.676 17.742 15.0001C17.742 16.3306 16.6673 17.4052 15.3369 17.4052Z" fill="#141613"/>
<path d="M20.0576 11.1429C20.0576 11.6226 19.6674 12.0128 19.1877 12.0128C18.7079 12.0128 18.3177 11.6226 18.3177 11.1429C18.3177 10.6631 18.7079 10.2729 19.1877 10.2729C19.6738 10.2729 20.0576 10.6631 20.0576 11.1429Z" fill="#141613"/>
</svg>
