<svg width="178" height="96" viewBox="0 0 178 96" fill="none" xmlns="http://www.w3.org/2000/svg">
<path d="M76.139 45.3803C84.7508 41.2836 89.0567 34.585 89.0567 25.2742C89.0567 20.5755 88.0312 16.3359 85.9854 12.5657C83.3784 7.77001 79.2817 4.32631 73.7003 2.23458C69.6444 0.74486 63.6651 0 55.7523 0H30.0036V15.7084H53.0279C55.5431 15.7084 57.7266 15.8257 59.5888 16.0553C61.4509 16.3359 63.1243 17.0348 64.614 18.1521C67.0782 20.0143 68.3128 22.9019 68.3128 26.8099C68.3128 30.7178 67.0782 33.6054 64.614 35.4676C62.4254 37.1001 58.5633 37.9113 53.0228 37.9113H30.0036V53.6197H51.8443C58.4511 53.6197 63.1753 54.5278 66.017 56.3441C69.323 58.4868 70.976 61.905 70.976 66.6089C70.976 71.3586 69.323 74.7768 66.017 76.8736C63.1294 78.6899 58.4052 79.598 51.8443 79.598L25.2742 79.5929V15.7084V0H0V2.23458C1.58155 2.65293 2.72435 3.23453 3.42329 3.97939C3.97939 4.48957 4.33141 5.58645 4.46916 7.25983V95.2962H56.3798C62.0121 95.2962 67.1292 94.7605 71.7412 93.6891C75.6951 92.7606 79.399 90.9648 82.8427 88.3118C89.0771 83.3784 92.1994 76.5624 92.1994 67.8588C92.1943 56.9206 86.8425 49.4261 76.139 45.3803Z" fill="#FFDEA8"/>
<path d="M110.938 44.4567H111.372H112.208H112.535H113.367H113.805H115.616L116.948 29.1973H107.795L109.122 44.4567H110.938Z" fill="#FFDEA8"/>
<path d="M117.091 27.5598H133.692V16.9532H117.866L119.106 0H113.805H113.367H112.535H112.209H111.372H110.938H105.638L106.877 16.9532H91.0515V27.5598H107.653H117.091Z" fill="#FFDEA8"/>
<path d="M14.3055 59.91C12.928 59.91 11.576 59.711 10.2496 59.3182C8.92311 58.9202 7.80582 58.359 6.89771 57.6193L8.45375 54.7623C9.168 55.349 10.0404 55.8184 11.071 56.1755C12.0964 56.5326 13.1576 56.7112 14.2494 56.7112C15.5707 56.7112 16.6064 56.4408 17.3615 55.9051C18.1165 55.3694 18.4941 54.6296 18.4941 53.6858C18.4941 53.0634 18.3359 52.5175 18.0145 52.0481C17.6931 51.5788 17.1472 51.2165 16.3768 50.9615C15.6013 50.7064 14.5198 50.5788 13.127 50.5788H8.36702L9.38737 39.8345H21.0092V42.9466H10.7138L12.6627 41.1915L11.8974 49.2473L9.97408 47.4922H13.9331C15.9126 47.4922 17.5043 47.7524 18.7134 48.2677C19.9174 48.7881 20.795 49.5023 21.3408 50.4156C21.8867 51.3288 22.1622 52.3695 22.1622 53.5379C22.1622 54.6858 21.8816 55.7418 21.3153 56.7061C20.749 57.6652 19.8919 58.4407 18.744 59.0223C17.591 59.6192 16.1166 59.91 14.3055 59.91Z" fill="black"/>
<path d="M42.4367 59.6297V51.7984L43.2836 54.033L34.6616 39.8398H38.5645L45.5182 51.2882H43.3142L50.2425 39.8398H53.8596L45.2631 54.033L46.0845 51.7984V59.6297H42.4367Z" fill="black"/>
<path d="M59.9357 56.5176H71.1035V59.6297H56.2625V39.8398H70.7107V42.9519H59.9408V56.5176H59.9357ZM59.6551 48.0639H69.4965V51.0893H59.6551V48.0639Z" fill="black"/>
<path d="M72.4045 59.6297L81.3123 39.8398H84.9294L93.8626 59.6297H89.9904L82.3581 41.7887H83.8274L76.1646 59.6297H72.4045ZM76.5064 55.0483L77.5267 52.1657H88.1844L89.1741 55.0483H76.5064Z" fill="black"/>
<path d="M96.3831 59.6297V39.8398H104.526C106.281 39.8398 107.78 40.1153 109.035 40.6714C110.291 41.2275 111.255 42.0336 111.933 43.0897C112.612 44.1457 112.949 45.4059 112.949 46.8803C112.949 48.3292 112.612 49.574 111.933 50.6148C111.255 51.6556 110.291 52.4514 109.035 53.0177C107.78 53.584 106.281 53.8646 104.526 53.8646H98.4442L100.056 52.227V59.6348H96.3831V59.6297ZM100.056 52.6198L98.4442 50.8393H104.352C105.974 50.8393 107.194 50.4924 108.015 49.7934C108.837 49.0945 109.245 48.1251 109.245 46.8803C109.245 45.6355 108.837 44.6712 108.015 43.9825C107.194 43.2938 105.974 42.9519 104.352 42.9519H98.4442L100.056 41.1408V52.6198ZM109.331 59.6297L104.327 52.4463H108.255L113.285 59.6297H109.331Z" fill="black"/>
<path d="M123.183 59.9103C121.637 59.9103 120.162 59.6909 118.759 59.2471C117.356 58.8032 116.229 58.2318 115.382 57.538L116.652 54.681C117.443 55.3034 118.423 55.8238 119.591 56.237C120.759 56.6503 121.958 56.8594 123.183 56.8594C124.218 56.8594 125.06 56.7472 125.698 56.5176C126.336 56.2931 126.81 55.987 127.111 55.5993C127.412 55.2116 127.565 54.7728 127.565 54.283C127.565 53.681 127.351 53.1964 126.917 52.829C126.484 52.4617 125.922 52.1709 125.234 51.9515C124.545 51.7373 123.785 51.5383 122.943 51.3597C122.106 51.1812 121.264 50.9618 120.428 50.6965C119.591 50.4312 118.821 50.0996 118.122 49.6914C117.423 49.2884 116.862 48.7425 116.438 48.064C116.015 47.3854 115.8 46.5181 115.8 45.4621C115.8 44.3856 116.086 43.4009 116.663 42.5081C117.239 41.6153 118.112 40.896 119.29 40.3603C120.469 39.8246 121.963 39.5542 123.769 39.5542C124.958 39.5542 126.137 39.7073 127.305 40.0083C128.473 40.3093 129.494 40.7429 130.356 41.3092L129.198 44.1662C128.31 43.6407 127.397 43.2479 126.453 42.9928C125.509 42.7377 124.606 42.6102 123.739 42.6102C122.739 42.6102 121.917 42.7326 121.28 42.9775C120.642 43.2224 120.173 43.5489 119.882 43.9519C119.591 44.355 119.443 44.8039 119.443 45.2937C119.443 45.8957 119.657 46.3804 120.081 46.7477C120.504 47.115 121.06 47.4007 121.749 47.6099C122.438 47.8191 123.203 48.013 124.055 48.2017C124.902 48.3905 125.739 48.6099 126.57 48.8649C127.397 49.12 128.162 49.4517 128.861 49.8547C129.56 50.2577 130.121 50.7985 130.545 51.4669C130.968 52.1352 131.182 52.9872 131.182 54.028C131.182 55.084 130.897 56.0585 130.32 56.9564C129.744 57.8492 128.866 58.5685 127.677 59.1042C126.494 59.645 124.994 59.9103 123.183 59.9103Z" fill="black"/>
<path d="M40.7378 92.6075C39.493 92.6075 38.34 92.3626 37.2737 91.8728C36.2074 91.383 35.335 90.6688 34.6565 89.725L36.7482 87.2353C37.2941 87.9904 37.891 88.5566 38.5441 88.9291C39.192 89.3066 39.9164 89.4954 40.7072 89.4954C42.7428 89.4954 43.7581 88.2812 43.7581 85.8476V75.6389H36.7176V72.5269H47.4058V85.6435C47.4058 87.9801 46.8395 89.725 45.7121 90.8729C44.5846 92.031 42.9265 92.6075 40.7378 92.6075Z" fill="black"/>
<path d="M61.8591 92.6073C60.3337 92.6073 58.9154 92.3522 57.6042 91.842C56.2931 91.3319 55.1605 90.6176 54.1963 89.6942C53.232 88.7708 52.4923 87.6892 51.9617 86.4546C51.4362 85.2199 51.1709 83.8782 51.1709 82.4241C51.1709 80.9548 51.4362 79.6029 51.9617 78.3682C52.4872 77.1336 53.232 76.0571 54.1963 75.1439C55.1605 74.2307 56.288 73.5164 57.5889 73.0114C58.8899 72.5012 60.3133 72.2461 61.8591 72.2461C63.3846 72.2461 64.7978 72.4961 66.0987 72.9961C67.3997 73.496 68.5272 74.2001 69.4761 75.1184C70.425 76.0367 71.1699 77.1132 71.6954 78.358C72.2208 79.6029 72.4861 80.9599 72.4861 82.4293C72.4861 83.8986 72.2208 85.2505 71.6954 86.4852C71.1699 87.7198 70.425 88.8014 69.4761 89.7197C68.5221 90.6431 67.3997 91.3574 66.0987 91.8522C64.7978 92.3573 63.3846 92.6073 61.8591 92.6073ZM61.8591 89.383C62.8591 89.383 63.7774 89.2146 64.6141 88.8728C65.4508 88.531 66.1854 88.0514 66.8028 87.429C67.4252 86.8066 67.9098 86.0719 68.2568 85.225C68.6037 84.3781 68.7822 83.4445 68.7822 82.4241C68.7822 81.4038 68.6139 80.4753 68.2721 79.6233C67.9354 78.7764 67.4456 78.0417 66.8181 77.4193C66.1854 76.7969 65.4508 76.3173 64.6141 75.9755C63.7774 75.6337 62.854 75.4653 61.8591 75.4653C60.8592 75.4653 59.9307 75.6337 59.0736 75.9755C58.2165 76.3173 57.4767 76.802 56.8543 77.4295C56.2319 78.0621 55.7421 78.7968 55.385 79.6335C55.0278 80.4702 54.8493 81.3987 54.8493 82.419C54.8493 83.419 55.0278 84.3424 55.385 85.1893C55.7421 86.0362 56.2319 86.776 56.8543 87.4086C57.4767 88.0412 58.2165 88.5259 59.0736 88.8626C59.9307 89.2146 60.8592 89.383 61.8591 89.383Z" fill="black"/>
<path d="M84.8733 92.6075C82.1745 92.6075 80.0623 91.8423 78.5267 90.3168C76.9911 88.7914 76.2207 86.5772 76.2207 83.6743V72.5371H79.8991V83.5621C79.8991 85.5977 80.3378 87.0772 81.2154 88.0006C82.0929 88.924 83.3326 89.3832 84.9345 89.3832C86.5365 89.3832 87.7711 88.924 88.6384 88.0006C89.5057 87.0772 89.9394 85.5977 89.9394 83.5621V72.5371H93.5566V83.6743C93.5566 86.5772 92.7862 88.7914 91.2506 90.3168C89.7149 91.8423 87.5875 92.6075 84.8733 92.6075Z" fill="black"/>
<path d="M98.6992 92.3216V72.5317H106.842C108.597 72.5317 110.097 72.8072 111.352 73.3633C112.607 73.9194 113.571 74.7255 114.249 75.7816C114.928 76.8376 115.265 78.0978 115.265 79.5722C115.265 81.0211 114.928 82.2659 114.249 83.3067C113.571 84.3475 112.607 85.1433 111.352 85.7096C110.097 86.2759 108.597 86.5565 106.842 86.5565H100.76L102.372 84.9189V92.3267H98.6992V92.3216ZM102.378 85.3117L100.765 83.5312H106.673C108.296 83.5312 109.515 83.1843 110.336 82.4853C111.158 81.7864 111.566 80.817 111.566 79.5722C111.566 78.3274 111.158 77.3631 110.336 76.6744C109.515 75.9856 108.296 75.6438 106.673 75.6438H100.765L102.378 73.8327V85.3117ZM111.648 92.3216L106.643 85.1382H110.571L115.607 92.3216H111.648Z" fill="black"/>
<path d="M119.366 92.3216V72.5317H122.392L134.804 87.8014H133.305V72.5317H136.922V92.3216H133.896L121.514 77.0519H123.014V92.3216H119.366Z" fill="black"/>
<path d="M145.942 89.2148H157.109V92.3269H142.268V72.5371H156.717V75.6492H145.947V89.2148H145.942ZM145.661 80.7612H155.502V83.7865H145.661V80.7612Z" fill="black"/>
<path d="M166.073 92.3216V84.4903L166.92 86.7249L158.298 72.5317H162.201L169.155 83.9801H166.951L173.879 72.5317H177.496L168.9 86.7249L169.721 84.4903V92.3216H166.073Z" fill="black"/>
<path d="M13.6676 92.679V74.3024L15.2236 76.0012H9.42798V72.8892H17.3153V92.679H13.6676Z" fill="black"/>
</svg>
