<svg width="211" height="40" viewBox="0 0 211 40" fill="none" xmlns="http://www.w3.org/2000/svg">
<g clip-path="url(#clip0_1_8210)">
<path d="M57.1547 21.7364C56.984 21.8883 56.7351 21.9643 56.4044 21.9643H41.3689V22.3766C41.7174 22.4779 41.9592 22.6045 42.0872 22.7564C42.2153 22.8903 42.2971 23.1435 42.3255 23.5161V37.468C42.2971 37.855 42.2153 38.1082 42.0872 38.2312C41.9379 38.394 41.6961 38.517 41.3689 38.5966V39.0234H47.3006V38.611C46.9627 38.5097 46.7209 38.3831 46.5822 38.2312C46.4436 38.101 46.3618 37.8442 46.344 37.468V31.7744H52.6633C53.0331 31.8033 53.2821 31.8865 53.4136 32.0167C53.563 32.1578 53.6875 32.4074 53.787 32.7619H54.1924V27.8315H53.787C53.6875 28.186 53.563 28.432 53.4136 28.5622C53.2856 28.7033 53.0331 28.7865 52.6633 28.8046H46.344V25.057H56.4079C56.7671 25.0787 57.016 25.1583 57.1583 25.2994C57.3076 25.4405 57.4321 25.6973 57.5317 26.0627H57.9371V20.9912H57.5317C57.4392 21.3457 57.3148 21.5953 57.1547 21.7364Z" fill="white"/>
<path d="M73.0296 22.391C73.3781 22.4922 73.6199 22.6152 73.7479 22.7563C73.8759 22.8901 73.9577 23.1433 73.9862 23.5159V31.7272C73.9862 32.5483 73.9222 33.2284 73.7906 33.7673C73.6626 34.3244 73.3674 34.7946 72.9087 35.1672C72.0907 35.8256 70.9065 36.1584 69.3596 36.1584C67.2117 36.1584 65.8105 35.5687 65.1526 34.3931C64.8539 33.8758 64.7046 32.986 64.7046 31.7272V23.5159C64.733 23.1397 64.8148 22.8865 64.9428 22.7563C65.0815 22.6044 65.3269 22.4814 65.6754 22.391V21.9641H59.7295V22.391C60.078 22.4814 60.3198 22.6044 60.4478 22.7563C60.5865 22.8974 60.6683 23.1542 60.6861 23.5159V32.5483C60.6861 34.4474 61.0097 35.8581 61.6605 36.7842C62.2508 37.627 63.1719 38.2672 64.4307 38.7049C65.7572 39.1607 67.3397 39.3922 69.1782 39.3922C72.962 39.3922 75.462 38.5241 76.6817 36.7878C77.329 35.8654 77.6561 34.451 77.6561 32.5519V23.5195C77.6775 23.1542 77.7557 22.901 77.8944 22.7599C78.0224 22.608 78.2642 22.485 78.6127 22.3946V21.9677H73.026V22.391H73.0296Z" fill="white"/>
<path d="M97.7698 36.3465L94.5942 31.8357C95.7819 31.5933 96.7385 31.2316 97.4676 30.7541C98.7051 29.9511 99.3239 28.6742 99.3239 26.9162C99.3239 24.4998 98.2357 22.9661 96.0593 22.315C95.2912 22.0799 94.011 21.9641 92.2258 21.9641H81.2336V22.3765C81.5821 22.4778 81.824 22.6044 81.952 22.7563C82.08 22.8901 82.1618 23.1433 82.1903 23.5159V37.4678C82.1618 37.844 82.08 38.0972 81.952 38.2311C81.8026 38.3938 81.5608 38.5168 81.2336 38.5964V39.0233H87.1653V38.6109C86.8275 38.5096 86.5857 38.383 86.447 38.2311C86.3083 38.1008 86.2265 37.844 86.2087 37.4678V32.0202H90.2379L93.5913 36.9108C93.9114 37.3665 94.0714 37.7138 94.0714 37.9453C94.0714 38.2492 93.8118 38.4734 93.2926 38.6145V39.0269H100.33V38.6145C99.9 38.5422 99.5479 38.3866 99.267 38.1406C98.8651 37.797 98.3673 37.1965 97.7698 36.3465ZM92.2578 28.9274H86.2087V25.0569H92.2578C93.2179 25.0569 93.9043 25.1473 94.3239 25.3318C94.932 25.6067 95.2378 26.1602 95.2378 26.9921C95.2378 27.806 94.9285 28.3486 94.3097 28.6235C93.8687 28.8261 93.1859 28.9274 92.2578 28.9274Z" fill="white"/>
<path d="M116.667 22.391C117.016 22.4814 117.258 22.6044 117.386 22.7563C117.524 22.8974 117.606 23.1542 117.624 23.5159V32.9173L108.641 23.8379C108.321 23.5123 108.161 23.2302 108.161 22.9842C108.161 22.6984 108.381 22.5031 108.819 22.391V21.9641H102.382V22.391C102.731 22.4922 102.972 22.6152 103.1 22.7563C103.228 22.8901 103.31 23.1433 103.339 23.5159V37.4678C103.31 37.8549 103.228 38.1081 103.1 38.2311C102.951 38.3938 102.709 38.5168 102.382 38.5964V39.0233H107.951V38.6109C107.613 38.5204 107.371 38.3938 107.233 38.2311C107.094 38.1008 107.012 37.844 106.994 37.4678V27.7843L115.888 36.7118C116.297 37.1386 116.582 37.4497 116.742 37.6414C116.841 37.7644 116.891 37.9019 116.891 38.0538C116.891 38.3396 116.671 38.5277 116.233 38.6181V39.0305H122.24V38.6181C121.902 38.5277 121.66 38.4011 121.521 38.2383C121.383 38.1081 121.301 37.8512 121.283 37.4751V23.5195C121.304 23.1542 121.383 22.901 121.521 22.7599C121.66 22.608 121.902 22.485 122.24 22.3946V21.9677H116.671V22.391H116.667Z" fill="white"/>
<path d="M125.188 22.391C125.536 22.4923 125.778 22.6153 125.906 22.7563C126.034 22.8902 126.116 23.1434 126.144 23.516V37.4679C126.116 37.8549 126.034 38.1081 125.906 38.2311C125.757 38.3939 125.518 38.5169 125.188 38.5965V39.0233H131.119V38.6109C130.782 38.5096 130.54 38.383 130.401 38.2311C130.262 38.1009 130.181 37.8441 130.163 37.4679V23.5196C130.184 23.1542 130.262 22.901 130.401 22.76C130.529 22.608 130.771 22.485 131.119 22.3946V21.9678H125.188V22.391Z" fill="white"/>
<path d="M149.014 21.7364C148.843 21.8883 148.595 21.9643 148.264 21.9643H134.366C134.025 21.9643 133.776 21.8883 133.616 21.7364C133.456 21.5844 133.335 21.3349 133.257 20.9912H132.837V26.0482H133.243C133.331 25.6937 133.456 25.4441 133.616 25.303C133.755 25.1619 134.007 25.0787 134.366 25.0607H139.309V37.4752C139.281 37.8623 139.199 38.1155 139.071 38.2385C138.922 38.4012 138.68 38.5242 138.353 38.6038V39.0306H144.284V38.6183C143.943 38.5278 143.705 38.4012 143.566 38.2385C143.427 38.1082 143.346 37.8514 143.328 37.4752V25.057H148.271C148.641 25.0787 148.89 25.1583 149.021 25.2994C149.192 25.4622 149.316 25.7154 149.395 26.0627H149.8V20.9912H149.395C149.299 21.3349 149.174 21.5844 149.014 21.7364Z" fill="white"/>
<path d="M164.483 22.391C164.832 22.4922 165.074 22.6152 165.202 22.7563C165.33 22.8901 165.412 23.1433 165.44 23.5159V31.7272C165.44 32.5483 165.376 33.2284 165.244 33.7673C165.113 34.3244 164.821 34.7946 164.363 35.1672C163.545 35.8256 162.36 36.1584 160.813 36.1584C158.666 36.1584 157.264 35.5687 156.607 34.3931C156.308 33.8758 156.158 32.986 156.158 31.7272V23.5159C156.187 23.1397 156.269 22.8865 156.397 22.7563C156.535 22.6044 156.781 22.4814 157.129 22.391V21.9641H151.183V22.391C151.532 22.4814 151.774 22.6044 151.902 22.7563C152.04 22.8974 152.122 23.1542 152.14 23.5159V32.5483C152.14 34.4474 152.464 35.8581 153.114 36.7842C153.705 37.627 154.626 38.2672 155.885 38.7049C157.211 39.1607 158.794 39.3922 160.632 39.3922C164.416 39.3922 166.916 38.5241 168.136 36.7878C168.783 35.8654 169.11 34.451 169.11 32.5519V23.5195C169.131 23.1542 169.21 22.901 169.348 22.7599C169.476 22.608 169.718 22.485 170.067 22.3946V21.9677H164.48V22.391H164.483Z" fill="white"/>
<path d="M189.22 36.3465L186.044 31.8394C187.232 31.597 188.189 31.2353 188.918 30.7578C190.155 29.9548 190.774 28.6778 190.774 26.9198C190.774 24.5035 189.686 22.9698 187.51 22.3187C186.741 22.0835 185.461 21.9678 183.676 21.9678H172.688V22.3801C173.036 22.4814 173.278 22.608 173.406 22.76C173.534 22.8938 173.616 23.147 173.644 23.5196V37.4715C173.616 37.8477 173.534 38.1009 173.406 38.2347C173.256 38.3975 173.015 38.5205 172.688 38.6001V39.0269H178.619V38.6145C178.281 38.5133 178.04 38.3867 177.901 38.2347C177.762 38.1045 177.68 37.8477 177.663 37.4715V32.0202H181.692L185.045 36.9108C185.365 37.3666 185.525 37.7138 185.525 37.9453C185.525 38.2492 185.266 38.4735 184.746 38.6145V39.0269H191.784V38.6145C191.354 38.5422 191.002 38.3867 190.721 38.1407C190.319 37.797 189.821 37.1966 189.22 36.3465ZM183.712 28.9274H177.663V25.0569H183.712C184.672 25.0569 185.358 25.1474 185.778 25.3319C186.386 25.6068 186.692 26.1602 186.692 26.9922C186.692 27.8061 186.382 28.3487 185.764 28.6236C185.323 28.8262 184.64 28.9274 183.712 28.9274Z" fill="white"/>
<path d="M210.561 34.9431C210.472 35.3084 210.351 35.558 210.202 35.6883C210.074 35.8293 209.821 35.9125 209.455 35.9306H198.808V31.7707H205.127C205.497 31.7997 205.746 31.8829 205.877 32.0131C206.027 32.1542 206.151 32.4038 206.251 32.7583H206.656V27.8315H206.251C206.151 28.186 206.027 28.432 205.877 28.5622C205.749 28.7033 205.497 28.7865 205.127 28.8046H198.808V25.057H208.993C209.362 25.0787 209.611 25.1583 209.739 25.2994C209.889 25.4405 210.013 25.6973 210.113 26.0627H210.518V20.9912H210.113C210.024 21.3457 209.899 21.5953 209.739 21.7364C209.569 21.8883 209.32 21.9643 208.993 21.9643H193.836V22.3766C194.185 22.4779 194.427 22.6045 194.555 22.7564C194.683 22.8903 194.764 23.1435 194.793 23.5161V37.468C194.764 37.855 194.683 38.1082 194.555 38.2312C194.416 38.394 194.174 38.517 193.836 38.5966V39.0234H209.455C209.825 39.0451 210.074 39.1247 210.202 39.2658C210.351 39.4068 210.472 39.6528 210.561 39.9965H210.98V34.9431H210.561Z" fill="white"/>
<path d="M30.5937 18.5458C34.0539 16.871 35.7822 14.1328 35.7822 10.3274C35.7822 8.40658 35.3697 6.6739 34.5482 5.13293C33.4991 3.17598 31.8562 1.76885 29.6122 0.911557C27.9835 0.303852 25.5795 0 22.4003 0H12.0554V6.42069H21.3086C22.3185 6.42069 23.1969 6.46771 23.9472 6.56176C24.694 6.67752 25.3697 6.95967 25.9671 7.41906C26.9593 8.17869 27.4536 9.35793 27.4536 10.9568C27.4536 12.5556 26.9593 13.7349 25.9671 14.4945C25.0888 15.1601 23.5347 15.4929 21.3121 15.4929H12.0554V21.9135H20.832C23.4885 21.9135 25.3875 22.2861 26.5255 23.0277C27.8519 23.9031 28.5169 25.3029 28.5169 27.2237C28.5169 29.1626 27.8519 30.5625 26.5255 31.4198C25.3662 32.1613 23.4672 32.5339 20.832 32.5339H10.1564V6.42069V0H0V0.911557C0.636554 1.08519 1.0953 1.32393 1.37624 1.62778C1.60028 1.83758 1.73897 2.28251 1.79587 2.96618V38.9474H22.6528C24.9145 38.9474 26.9735 38.7303 28.8228 38.2926C30.4124 37.9128 31.8988 37.1785 33.2822 36.0969C35.7893 34.0821 37.0411 31.2932 37.0411 27.7374C37.0446 23.2664 34.8931 20.2026 30.5937 18.5458Z" fill="white"/>
<path d="M44.5766 18.1696H44.7509H45.0852H45.2168H45.5546H45.7288H46.4579L46.9913 11.9333H43.3142L43.8476 18.1696H44.5766Z" fill="white"/>
<path d="M47.0482 11.2642H53.7196V6.93073H47.3611L47.859 0H45.7288H45.5546H45.2168H45.0852H44.7509H44.5766H42.4465L42.9444 6.93073H36.5859V11.2642H43.2538H47.0482Z" fill="white"/>
<path d="M207.485 7.23454C206.987 7.23454 206.528 7.14772 206.101 6.97047C205.675 6.79323 205.305 6.54725 204.992 6.22531C204.675 5.90699 204.43 5.52717 204.256 5.08948C204.078 4.65179 203.989 4.17069 203.989 3.6498C203.989 3.13615 204.078 2.65505 204.256 2.21012C204.434 1.76519 204.679 1.37814 204.992 1.05259C205.305 0.727031 205.678 0.470203 206.101 0.282104C206.528 0.0940047 206.987 -0.00366211 207.485 -0.00366211C207.99 -0.00366211 208.456 0.0903874 208.882 0.282104C209.309 0.470203 209.675 0.727031 209.985 1.05259C210.294 1.37814 210.539 1.76158 210.717 2.21012C210.895 2.65505 210.984 3.13615 210.984 3.6498C210.984 4.17431 210.895 4.65179 210.717 5.08948C210.539 5.52717 210.298 5.90699 209.985 6.22531C209.675 6.54363 209.305 6.79323 208.882 6.97047C208.456 7.14772 207.99 7.23454 207.485 7.23454ZM207.485 6.5581C207.876 6.5581 208.235 6.48214 208.569 6.3266C208.9 6.17467 209.188 5.96487 209.434 5.70442C209.679 5.44398 209.867 5.13651 210.006 4.78563C210.145 4.43475 210.212 4.05494 210.212 3.6498C210.212 3.24466 210.145 2.86123 210.006 2.4995C209.867 2.13777 209.679 1.82307 209.441 1.55177C209.202 1.28048 208.914 1.07067 208.584 0.91513C208.253 0.763204 207.887 0.683623 207.488 0.683623C207.097 0.683623 206.738 0.759586 206.404 0.91513C206.073 1.06706 205.781 1.28048 205.539 1.55177C205.294 1.82307 205.106 2.13777 204.967 2.4995C204.828 2.86123 204.761 3.24466 204.761 3.6498C204.761 4.05494 204.835 4.43475 204.981 4.78563C205.127 5.13651 205.326 5.44398 205.572 5.70442C205.82 5.96487 206.108 6.17467 206.443 6.3266C206.774 6.48214 207.122 6.5581 207.485 6.5581ZM207.855 2.02926C208.264 2.02926 208.58 2.09798 208.811 2.23182C209.042 2.36566 209.156 2.59717 209.156 2.92273C209.156 3.19402 209.071 3.39297 208.904 3.51596C208.737 3.64257 208.559 3.733 208.37 3.78726L209.035 4.78925C209.096 4.87968 209.181 4.93394 209.288 4.95203V5.08587H208.249V4.95203C208.31 4.95203 208.342 4.93394 208.342 4.89777C208.342 4.85436 208.306 4.78201 208.235 4.68073L207.702 3.85599H206.745V4.85798C206.745 4.89415 206.759 4.91947 206.791 4.93394C206.823 4.94841 206.852 4.95564 206.877 4.95564V5.08948H205.959V4.95564C206.048 4.95564 206.091 4.92309 206.091 4.86159V2.24629C206.091 2.1848 206.044 2.15224 205.959 2.15224V2.02926H207.855ZM207.844 3.33871C208.288 3.33871 208.509 3.19764 208.509 2.91911C208.509 2.7925 208.459 2.69484 208.356 2.62973C208.253 2.561 208.082 2.52844 207.844 2.52844H206.766V3.33871H207.844Z" fill="white"/>
</g>
<defs>
<clipPath id="clip0_1_8210">
<rect width="210.98" height="40" fill="white"/>
</clipPath>
</defs>
</svg>
